<svg xmlns="http://www.w3.org/2000/svg" width="1200" height="740" viewBox="0 0 1200 740" role="img" aria-labelledby="title desc">
  <title id="title">rybskiworks / ganymede-agent</title>
  <desc id="desc">
    georgrybski machine identity. First moon that ships.
    Backdrop: Jupiter, trailing orbit arc, small moon west with transit shadow.
  </desc>

  <defs>
    <linearGradient id="whole-card-gradient" gradientUnits="userSpaceOnUse" x1="22" y1="22" x2="1178" y2="718">
      <stop offset="0%" class="grad-blue-edge"/>
      <stop offset="30%" class="grad-blue-edge"/>
      <stop offset="55%" class="grad-red-core"/>
      <stop offset="78%" class="grad-blue-edge"/>
      <stop offset="100%" class="grad-blue-edge"/>
    </linearGradient>
    <radialGradient id="planet-shade" cx="30%" cy="32%" r="85%">
      <stop offset="0%" stop-color="#ffffff" stop-opacity="0.08"/>
      <stop offset="55%" stop-color="#ffffff" stop-opacity="0"/>
      <stop offset="100%" stop-color="#3b2312" stop-opacity="0.28"/>
    </radialGradient>
    <filter id="band-wobble" x="-5%" y="-5%" width="110%" height="110%">
      <feTurbulence type="fractalNoise" baseFrequency="0.008 0.09" numOctaves="2" seed="7" result="n"/>
      <feDisplacementMap in="SourceGraphic" in2="n" scale="10" result="w"/>
      <feGaussianBlur in="w" stdDeviation="0.6"/>
    </filter>
    <filter id="blur8" x="-40%" y="-40%" width="180%" height="180%">
      <feGaussianBlur stdDeviation="8"/>
    </filter>
    <filter id="blur2" x="-60%" y="-60%" width="220%" height="220%">
      <feGaussianBlur stdDeviation="1.6"/>
    </filter>
    <filter id="blur1" x="-60%" y="-60%" width="220%" height="220%">
      <feGaussianBlur stdDeviation="0.7"/>
    </filter>
    <linearGradient id="terminator" x1="0.2" y1="0.1" x2="0.85" y2="1">
      <stop offset="0%" stop-color="#000000" stop-opacity="0"/>
      <stop offset="52%" stop-color="#000000" stop-opacity="0"/>
      <stop offset="100%" stop-color="#000000" stop-opacity="0.62"/>
    </linearGradient>
    <linearGradient id="limb-grade" x1="0" y1="0" x2="1" y2="0">
      <stop offset="0%" stop-color="#000000" stop-opacity="0.25"/>
      <stop offset="100%" stop-color="#000000" stop-opacity="0.85"/>
    </linearGradient>
    <pattern id="tac-dots" width="32" height="32" patternUnits="userSpaceOnUse">
      <circle cx="3" cy="3" r="2.0" class="tac-dot"/>
      <circle cx="18" cy="18" r="1.4" class="tac-dot-faint"/>
    </pattern>
    <clipPath id="inner-clip">
      <rect x="22" y="22" width="1156" height="696" rx="18"/>
    </clipPath>
    <linearGradient id="trail-fade" x1="0" y1="0" x2="1" y2="0">
      <stop offset="0%" stop-color="#ffffff" stop-opacity="1"/>
      <stop offset="55%" stop-color="#ffffff" stop-opacity="0.5"/>
      <stop offset="100%" stop-color="#ffffff" stop-opacity="0"/>
    </linearGradient>
    <mask id="trail-mask">
      <path d="M 840.3 170.9 L 834.7 172.0 L 829.1 173.2 L 823.6 174.4 L 818.1 175.6 L 812.7 176.8 L 807.3 177.9 L 801.9 179.1 L 796.6 180.3 L 791.4 181.5 L 786.2 182.7 L 781.1 183.9 L 776.0 185.2 L 771.0 186.4 L 766.0 187.6 L 761.1 188.8 L 756.2 190.0 L 751.5 191.2 L 746.7 192.5 L 742.1 193.7 L 737.5 194.9 L 733.0 196.1 L 728.6 197.3 L 724.2 198.6 L 719.9 199.8 L 715.7 201.0 L 711.5 202.2 L 707.5 203.4 L 703.5 204.6 L 699.6 205.8 L 695.8 207.0 L 692.0 208.2 L 688.4 209.4 L 684.8 210.6 L 681.3 211.8 L 677.9 212.9 L 674.6 214.1 L 671.3 215.2 L 668.2 216.4 L 665.1 217.5 L 662.2 218.7 L 659.3 219.8 L 656.5 220.9 L 653.9 222.1 L 651.3 223.2 L 648.8 224.3 L 646.4 225.3 L 644.1 226.4 L 641.9 227.5 L 639.8 228.5 L 637.8 229.6 L 635.9 230.6 L 634.1 231.6 L 632.4 232.7 L 630.8 233.7 L 629.3 234.6 L 627.9 235.6 L 626.6 236.6 L 625.4 237.5 L 624.3 238.5 L 623.4 239.4 L 622.5 240.3 L 621.7 241.2 L 621.0 242.0 L 620.5 242.9 L 620.0 243.8 L 619.7 244.6 L 619.4 245.4 L 619.3 246.2 L 619.2 247.0 L 619.3 247.8 L 619.5 248.5 L 619.8 249.2 L 620.1 250.0 L 620.6 250.7 L 621.2 251.3 L 621.9 252.0 L 622.7 252.6 L 623.6 253.3 L 624.6 253.9 L 625.8 254.5 L 627.0 255.0 L 628.3 255.6 L 629.7 256.1 L 631.2 256.6 L 632.9 257.1" fill="none" stroke="url(#trail-fade)" stroke-width="6" stroke-linecap="round"/>
    </mask>
    <clipPath id="jup-clip">
      <circle cx="965" cy="193" r="120"/>
    </clipPath>
  </defs>

  <style>
    .bg { fill: #ffffff; }
    .frame { fill: #f6f8fa; stroke: #c8d1db; stroke-width: 1.5; }
    .hairline { stroke: #c8d1db; stroke-width: 1.5; }
    .primary { fill: #1f2328; }
    .secondary { fill: #48515b; }
    .gradient-text { fill: url(#whole-card-gradient); }
    .grad-blue-edge { stop-color: #0891b2; }
    .grad-red-core { stop-color: #8250df; }
    .jup-base { fill: #d8cfc2; }
    .cap-top { fill: #8f8878; }
    .b2a { fill: #b5a691; }
    .b2b { fill: #c9a37e; }
    .b2c { fill: #b5a691; }
    .b3 { fill: #ccb59b; }
    .b4 { fill: #a28162; }
    .b5 { fill: #e3dcd7; }
    .b6 { fill: #9f806b; }
    .b7 { fill: #c9bdaa; }
    .cap-bot { fill: #8f8878; }
    .neb-wisp { fill: #d8cbb8; opacity: 0.85; }
    .seb-wisp { fill: #ddd1c1; opacity: 0.85; }
    .fret { fill: none; stroke: #7a6a58; stroke-width: 1.4; opacity: 0.6; }
    .fret-warm { fill: none; stroke: #a28162; stroke-width: 1.5; opacity: 0.7; }
    .storm { fill: #ede8d8; stroke: #7a6a58; stroke-width: 1.2; opacity: 0.9; }
    .storm-warm { fill: #f5cfaa; stroke: #a28162; stroke-width: 1.2; opacity: 0.9; }
    .spot { fill: #c08030; stroke: #8a5a22; stroke-width: 2; }
    .spot-inner { fill: #e0aa58; opacity: 0.9; }
    .orbit { fill: none; stroke: #c8d1db; stroke-width: 1.1; opacity: 0.55; }
    .orbit-ganymede { fill: none; stroke: #c8d1db; stroke-width: 1.4; opacity: 0.85; }
    .moon { fill: #9aa5b1; opacity: 0.9; }
    .moon-ganymede { fill: #0891b2; }
    .moon-halo { fill: none; stroke: #0891b2; stroke-width: 1.2; opacity: 0.7; }
    .star { fill: #c8d1db; opacity: 0.55; }
    .backdrop { opacity: 0.5; }
    .tac-dot { fill: #1f2328; opacity: 0.22; }
    .tac-dot-faint { fill: #1f2328; opacity: 0.12; }
    text { font-family: ui-monospace, SFMono-Regular, Menlo, Monaco, Consolas, "Liberation Mono", "Courier New", monospace; }
    .signature { font-size: 26px; font-weight: 700; letter-spacing: 1.2px; }
    .headline { font-size: 46px; font-weight: 700; letter-spacing: -1px; }
    .role { font-size: 24px; }
    .statement { font-size: 38px; font-weight: 600; letter-spacing: -0.45px; }
    .footer { font-size: 22px; }
    @media (prefers-color-scheme: dark) {
      .bg { fill: #0d1117; }
      .frame { fill: #161b22; stroke: #3a424c; }
      .hairline { stroke: #3a424c; }
      .primary { fill: #f0f6fc; }
      .secondary { fill: #a1abb5; }
      .grad-blue-edge { stop-color: #22d3ee; }
      .grad-red-core { stop-color: #d2a8ff; }
      .jup-base { fill: #2e2c28; }
      .cap-top { fill: #3a362e; }
      .b2a { fill: #453f34; }
      .b2b { fill: #4e4030; }
      .b2c { fill: #453f34; }
      .b3 { fill: #4c4436; }
      .b4 { fill: #54402e; }
      .b5 { fill: #57534a; }
      .b6 { fill: #503c2c; }
      .b7 { fill: #4c4436; }
      .cap-bot { fill: #3a362e; }
      .neb-wisp { fill: #5a5044; }
      .seb-wisp { fill: #5c554b; }
      .fret { stroke: #6a6054; }
      .fret-warm { stroke: #7a5c38; }
      .storm { fill: #57534a; stroke: #6a6054; }
      .storm-warm { fill: #6e5a38; stroke: #7a5c38; }
      .spot { fill: #7a5a26; stroke: #8a6a42; }
      .spot-inner { fill: #a8834a; opacity: 0.7; }
      .orbit { stroke: #3a424c; opacity: 0.7; }
      .orbit-ganymede { stroke: #3a424c; opacity: 0.95; }
      .moon { fill: #5b6570; }
      .moon-ganymede { fill: #22d3ee; }
      .moon-halo { stroke: #22d3ee; }
      .star { fill: #3a424c; opacity: 0.9; }
      .tac-dot { fill: #f0f6fc; opacity: 0.20; }
      .tac-dot-faint { fill: #f0f6fc; opacity: 0.10; }
    }
  </style>

  <rect width="1200" height="740" rx="24" class="bg"/>
  <rect x="22" y="22" width="1156" height="696" rx="18" class="frame"/>

  <g class="backdrop">
    <circle cx="120" cy="120" r="2.5" class="star"/>
    <circle cx="210" cy="300" r="1.8" class="star"/>
    <circle cx="340" cy="120" r="2" class="star"/>
    <circle cx="520" cy="90" r="1.6" class="star"/>
    <circle cx="700" cy="130" r="2.2" class="star"/>
    <circle cx="880" cy="90" r="1.7" class="star"/>
    <circle cx="150" cy="620" r="2" class="star"/>
    <circle cx="320" cy="680" r="1.6" class="star"/>
    <!-- trailing arc: moon moves west, trail fades behind (far side) -->
    <ellipse cx="965" cy="193" rx="350" ry="44" transform="rotate(-9 965 193)" fill="none" stroke="none"/>
    <g mask="url(#trail-mask)">
      <ellipse cx="965" cy="193" rx="350" ry="44" transform="rotate(-9 965 193)" class="orbit-ganymede"/>
    </g>
    <!-- Jupiter: banded body -->
    <circle cx="965" cy="193" r="120" class="jup-base" stroke="#6b7683" stroke-width="2"/>
    <g clip-path="url(#jup-clip)">
      <g filter="url(#band-wobble)">
      <rect x="825" y="53" width="280" height="30" class="cap-top"/>
      <rect x="825" y="83" width="280" height="12" class="b2a"/>
      <rect x="825" y="95" width="280" height="16" class="b2b"/>
      <rect x="825" y="111" width="280" height="14" class="b2c"/>
      <rect x="825" y="125" width="280" height="34" class="b3"/>
      <rect x="825" y="159" width="280" height="28" class="b4"/>
      <rect x="825" y="187" width="280" height="32" class="b5"/>
      <rect x="825" y="219" width="280" height="32" class="b6"/>
      <rect x="825" y="251" width="280" height="36" class="b7"/>
      <rect x="825" y="287" width="280" height="46" class="cap-bot"/>
      <!-- belt ripple -->
      <path d="M 825 165 Q 895 158 965 165 T 1105 163" fill="none" stroke="#c8d1db" stroke-width="1" opacity="0.5"/>
      <path d="M 825 227 Q 895 234 965 227 T 1105 229" fill="none" stroke="#c8d1db" stroke-width="1" opacity="0.5"/>
      <!-- fractal frets on orange bands -->
      <path d="M 840 172 q 18 -7 36 0 t 36 0 t 36 2 t 36 -3 t 36 1 t 36 -1 t 36 2" class="fret"/>
      <path d="M 845 180 q 22 6 44 0 t 44 -2 t 44 3 t 44 -3 t 44 1 t 44 0" class="fret"/>
      <path d="M 840 232 q 18 -6 36 1 t 36 -2 t 36 2 t 36 -2 t 36 1 t 36 -1 t 36 2" class="fret"/>
      <path d="M 845 240 q 22 5 44 -1 t 44 2 t 44 -3 t 44 2 t 44 0 t 40 -1" class="fret"/>
      <path d="M 850 103 q 20 -4 40 0 t 40 1 t 40 -2 t 40 1 t 40 0" class="fret"/>
      <path d="M 835 295 q 20 -5 40 0 t 40 1 t 40 -2 t 40 2 t 40 -1 t 40 1 t 36 0" class="fret"/>
      <path d="M 845 304 q 24 4 48 0 t 48 -2 t 48 2 t 48 -1 t 44 1" class="fret"/>
      <!-- mottled pores in zones/caps (reference: pocked cream bands) -->
      <g fill="#7a6a58" opacity="0.35">
        <ellipse cx="880" cy="140" rx="5" ry="2.5"/>
        <ellipse cx="920" cy="146" rx="3.5" ry="2"/>
        <ellipse cx="970" cy="138" rx="4.5" ry="2.2"/>
        <ellipse cx="1020" cy="144" rx="3" ry="1.8"/>
        <ellipse cx="890" cy="205" rx="4" ry="2"/>
        <ellipse cx="950" cy="210" rx="3" ry="1.6"/>
        <ellipse cx="1000" cy="205" rx="5" ry="2.2"/>
        <ellipse cx="1050" cy="210" rx="3.5" ry="1.8"/>
        <ellipse cx="900" cy="268" rx="4" ry="2"/>
        <ellipse cx="960" cy="272" rx="5" ry="2.2"/>
        <ellipse cx="1020" cy="268" rx="3.5" ry="1.8"/>
        <ellipse cx="880" cy="300" rx="4.5" ry="2"/>
        <ellipse cx="940" cy="306" rx="3.5" ry="1.8"/>
        <ellipse cx="1000" cy="300" rx="4" ry="2"/>
      </g>
      <!-- NEB/SEB chevron waves (reference: ragged brown-white boundaries) -->
      <path d="M 830 168 l 14 -5 l 14 5 l 14 -6 l 14 6 l 14 -5 l 14 5 l 14 -6 l 14 6 l 14 -5 l 14 5 l 14 -6 l 14 6 l 14 -5" class="fret-warm"/>
      <path d="M 830 184 q 16 -6 32 0 t 32 2 t 32 -3 t 32 2 t 32 -2 t 32 1 t 32 -1 t 30 0" class="fret-warm"/>
      <path d="M 832 222 l 13 5 l 13 -5 l 13 6 l 13 -6 l 13 5 l 13 -5 l 13 6 l 13 -6 l 13 5 l 13 -5 l 13 6 l 13 -6" class="fret-warm"/>
      <path d="M 832 246 q 16 6 32 0 t 32 -2 t 32 3 t 32 -2 t 32 2 t 32 -1 t 32 1 t 30 0" class="fret-warm"/>
      <!-- white wisp streaks inside NEB/SEB -->
      <ellipse cx="940" cy="174" rx="52" ry="6" class="neb-wisp" filter="url(#blur2)"/>
      <ellipse cx="1030" cy="180" rx="40" ry="5" class="neb-wisp" filter="url(#blur2)"/>
      <ellipse cx="995" cy="234" rx="55" ry="6" class="seb-wisp" filter="url(#blur2)"/>
      <ellipse cx="905" cy="240" rx="38" ry="5" class="seb-wisp" filter="url(#blur2)"/>
      <!-- festoons hanging below NEB (reference) -->
      <path d="M 900 187 q 4 10 -2 16 q -5 5 -9 2 M 900 187 q 8 6 6 14" class="fret-warm"/>
      <path d="M 1040 187 q 4 10 -2 16 q -5 5 -9 2 M 1040 187 q 8 6 6 14" class="fret-warm"/>
      <!-- small storms -->
      <ellipse cx="905" cy="173" rx="9" ry="5" class="storm"/>
      <ellipse cx="986" cy="234" rx="7" ry="4" class="storm"/>
      <ellipse cx="935" cy="241" rx="5" ry="3" class="storm"/>
      <ellipse cx="1062" cy="170" rx="6" ry="3.5" class="storm"/>

      </g>
      <!-- Great Red Spot: tight split flow, blurred, inner swirl -->
      <ellipse cx="1012" cy="246" rx="24" ry="14" class="spot"/>
      <ellipse cx="1012" cy="246" rx="17" ry="9.5" fill="none" stroke="#a83e22" stroke-width="1.3" opacity="0.75" filter="url(#blur2)"/>
      <ellipse cx="1012" cy="246" rx="10" ry="5.5" fill="none" stroke="#a83e22" stroke-width="1.1" opacity="0.7" filter="url(#blur2)"/>
      <path d="M 996 244 q 6 -2 12 0 t 12 0 M 998 249 q 8 2 16 0" fill="none" stroke="#a83e22" stroke-width="0.9" opacity="0.8"/>
      <ellipse cx="1012" cy="246" rx="13" ry="7" class="spot-inner"/>
      <!-- hollow: pale collar trailing east of spot (reference) -->
      <path d="M 1036 240 Q 1052 238 1064 242 Q 1072 246 1064 250 Q 1052 254 1036 252" fill="none" stroke="#ddd1c1" stroke-width="2" opacity="0.8" filter="url(#blur2)"/>
      <!-- ganymede transit shadow -->
      <ellipse cx="890" cy="228" rx="5.5" ry="5.5" fill="#160b03" opacity="0.95" filter="url(#blur1)"/>
      <!-- limb shading -->
      <circle cx="965" cy="193" r="120" fill="url(#planet-shade)"/>
      <circle cx="965" cy="193" r="120" fill="url(#terminator)"/>
      <!-- east-limb crescent: dark ellipse overlapping the limb, clipped to disk -->
      <path d="M 965 53 A 95 140 0 0 1 965 333 A 140 140 0 0 0 965 53 Z" fill="url(#limb-grade)" opacity="1" filter="url(#blur2)"/>
    </g>
    <circle cx="965" cy="193" r="120" fill="none" stroke="#4b5560" stroke-width="2"/>
    <!-- ganymede: small, highlighted, west elongation -->
    <circle cx="632.9" cy="257.1" r="8" class="moon-halo"/>
    <circle cx="632.9" cy="257.1" r="4.5" class="moon-ganymede"/>
  </g>

  <text x="60" y="86" class="signature gradient-text">rybskiworks</text>

  <text x="60" y="147" class="headline primary">ganymede-agent</text>
  <text x="60" y="207" class="role secondary">georgrybski&#8217;s machine identity</text>

  <text x="60" y="460" class="statement primary">first moon that ships.</text>

  <line x1="60" y1="637" x2="1140" y2="637" class="hairline"/>

  <text x="60" y="686" class="footer secondary">code of mass construction</text>

  <g clip-path="url(#inner-clip)"><rect x="22" y="22" width="1156" height="696" fill="url(#tac-dots)" opacity="0.45" pointer-events="none"/></g>
</svg>
